<svg width="15" height="20" viewBox="0 0 15 20" fill="none" xmlns="http://www.w3.org/2000/svg">
<path d="M1.63652 9.38727L5.52793 11.2861C6.27793 11.6533 6.16074 12.7513 5.35215 12.9545L1.15215 14.0017C1.02886 14.0327 0.900354 14.037 0.775289 14.0141C0.650223 13.9913 0.531495 13.942 0.427091 13.8695C0.322688 13.7969 0.235032 13.7029 0.17002 13.5936C0.105009 13.4844 0.0641503 13.3625 0.0501937 13.2361C-0.0786797 12.1128 0.0413491 10.9749 0.401756 9.90328C0.442188 9.78326 0.507755 9.67323 0.594081 9.58056C0.680406 9.48788 0.785505 9.41468 0.902365 9.36585C1.01922 9.31701 1.14515 9.29366 1.27175 9.29736C1.39835 9.30105 1.52271 9.3317 1.63652 9.38727ZM3.35527 18.733C4.28633 19.3708 5.34486 19.7988 6.45762 19.9873C6.58284 20.0088 6.71121 20.0032 6.8341 19.9709C6.95699 19.9387 7.07154 19.8804 7.17006 19.8002C7.26857 19.72 7.34876 19.6196 7.40523 19.5058C7.46171 19.392 7.49316 19.2674 7.49746 19.1404L7.6498 14.8115C7.67715 13.9795 6.65371 13.565 6.09473 14.1826L3.1959 17.4013C3.11101 17.4958 3.04728 17.6073 3.00899 17.7284C2.97069 17.8494 2.9587 17.9773 2.97383 18.1034C2.98895 18.2295 3.03085 18.3509 3.0967 18.4594C3.16255 18.568 3.25084 18.6613 3.35566 18.733H3.35527ZM9.03262 14.4392L11.3299 18.1111C11.3976 18.2189 11.4875 18.311 11.5936 18.3814C11.6998 18.4517 11.8197 18.4986 11.9454 18.5189C12.071 18.5392 12.1996 18.5325 12.3225 18.4993C12.4454 18.466 12.5598 18.4069 12.658 18.3259C13.5286 17.6062 14.2314 16.7048 14.717 15.6849C14.7705 15.5701 14.7991 15.4452 14.801 15.3186C14.8028 15.1919 14.7779 15.0663 14.7277 14.9499C14.6776 14.8336 14.6034 14.7291 14.5101 14.6435C14.4167 14.5578 14.3063 14.4929 14.1861 14.4529L10.0682 13.1146C9.2748 12.8607 8.59121 13.7318 9.03262 14.4392ZM14.8268 9.27399C14.3765 8.23822 13.7043 7.31398 12.8576 6.56657C12.7624 6.48307 12.6504 6.42081 12.5292 6.38392C12.408 6.34703 12.2804 6.33636 12.1547 6.35262C12.0291 6.36888 11.9084 6.41169 11.8006 6.47821C11.6928 6.54474 11.6004 6.63344 11.5295 6.73844L9.10762 10.3291C8.64277 11.0205 9.29121 11.9154 10.092 11.6849L14.2576 10.4931C14.3797 10.4572 14.4928 10.3957 14.5893 10.3128C14.6859 10.2299 14.7637 10.1274 14.8177 10.0121C14.8716 9.89688 14.9005 9.77147 14.9023 9.64421C14.9041 9.51696 14.8789 9.39076 14.8283 9.27399H14.8268ZM2.38691 1.17867C2.27626 1.23193 2.17779 1.30743 2.09764 1.40047C2.01749 1.4935 1.95739 1.60207 1.92109 1.71938C1.8848 1.83669 1.87309 1.96023 1.8867 2.08227C1.90031 2.20432 1.93895 2.32224 2.00019 2.42867L6.06738 9.47711C6.52441 10.2662 7.73183 9.94196 7.73183 9.0318V0.893518C7.73294 0.770532 7.70842 0.648665 7.65983 0.53568C7.61123 0.422696 7.53964 0.321072 7.4496 0.237284C7.35957 0.153496 7.25307 0.0893822 7.13689 0.0490268C7.02071 0.0086714 6.89739 -0.00704027 6.7748 0.00289293C5.25269 0.123851 3.76557 0.522342 2.38691 1.17867Z" fill="#4B5563"/>
</svg>
